<?xml version="1.0" encoding="utf-8"?>
<!-- Generator: Adobe Illustrator 24.1.0, SVG Export Plug-In . SVG Version: 6.00 Build 0)  -->
<svg version="1.1" baseProfile="tiny" id="Layer_1" xmlns="http://www.w3.org/2000/svg" xmlns:xlink="http://www.w3.org/1999/xlink"
	 x="0px" y="0px" width="700px" height="175px" viewBox="0 0 700 175" xml:space="preserve">
<g>
	<path fill="#557F98" d="M104.7,31c0,0-18.4,0-18.8,0c-0.9,0-1.8-2.1-2.7-2.1c-0.5,0-9.1,0-9.1,0c-0.9,0-1.6,0.7-1.6,1.6v2.1v4.1
		v15.5c0,0.9,0.7,1.6,1.6,1.6h30.5c0.9,0,1.6-0.7,1.6-1.6V32.6C106.3,31.7,105.6,31,104.7,31z"/>
	<path fill="#78B4D5" d="M103.5,55.1H75.3c-1.5,0-2.7-1.2-2.7-2.7V35.2c0-1.5,1.2-2.7,2.7-2.7h28.2c1.5,0,2.7,1.2,2.7,2.7v17.3
		C106.3,53.9,105,55.1,103.5,55.1z"/>
</g>
<g>
	<path fill="#CECECE" d="M122.8,36.3l4.8,8.3l4.8-8.3h2.9v15.3h-2.2V39.2l-5,8.9H127l-5-8.9v12.4h-2.2V36.3H122.8z"/>
	<path fill="#CECECE" d="M143.2,40.2c1.3,0,2.4,0.3,3.2,0.9c0.8,0.6,1.2,1.6,1.2,2.9v7.5h-2v-1c-0.4,0.5-0.9,0.8-1.5,1
		c-0.6,0.2-1.3,0.3-2.1,0.3c-1.1,0-2-0.3-2.7-0.9c-0.8-0.6-1.1-1.4-1.1-2.6c0-0.7,0.2-1.3,0.5-1.9c0.4-0.5,0.8-0.9,1.4-1.2
		s1.2-0.4,1.9-0.4c1.1,0,1.9,0,2.5,0c0.6,0,1-0.1,1.2-0.2v-0.9c0-0.7-0.2-1.2-0.7-1.6c-0.5-0.4-1.2-0.6-2-0.6
		c-0.6,0-1.2,0.1-1.8,0.4c-0.6,0.3-1.1,0.6-1.6,1.1l-0.9-1.2C139.9,40.8,141.4,40.2,143.2,40.2z M144.7,50.1
		c0.6-0.3,0.9-0.7,0.9-1.4v-2.4c-0.4,0.1-1,0.1-1.7,0.1h-1.2c-0.8,0-1.4,0.2-1.9,0.6c-0.5,0.4-0.7,0.9-0.7,1.5
		c0,0.7,0.2,1.2,0.7,1.5c0.5,0.3,1.1,0.5,1.9,0.5C143.5,50.5,144.2,50.3,144.7,50.1z"/>
	<path fill="#CECECE" d="M157.9,43.1c-0.4-0.4-0.8-0.8-1.4-1c-0.6-0.2-1.2-0.4-1.9-0.4c-0.7,0-1.3,0.1-1.7,0.4
		c-0.4,0.3-0.6,0.7-0.6,1.2c0,0.5,0.2,0.8,0.7,1c0.4,0.2,1.1,0.5,2,0.7c0.9,0.2,1.6,0.4,2.1,0.6c0.5,0.2,1,0.5,1.4,1
		c0.4,0.4,0.6,1,0.6,1.8c0,1-0.4,1.8-1.2,2.5c-0.8,0.6-1.9,1-3.3,1c-0.9,0-1.8-0.2-2.6-0.5c-0.8-0.3-1.5-0.7-2-1.3l1-1.4
		c0.4,0.5,1,0.9,1.6,1.1c0.7,0.3,1.4,0.4,2.1,0.4c0.8,0,1.4-0.2,1.8-0.5c0.4-0.3,0.7-0.8,0.7-1.3c0-0.5-0.2-0.9-0.7-1.1
		c-0.5-0.2-1.2-0.5-2.1-0.7c-0.9-0.2-1.6-0.4-2.1-0.6s-1-0.5-1.4-1c-0.4-0.4-0.6-1-0.6-1.7c0-0.6,0.2-1.1,0.5-1.6
		c0.3-0.5,0.8-0.9,1.5-1.2c0.6-0.3,1.4-0.4,2.2-0.4c1.8,0,3.2,0.5,4.2,1.6L157.9,43.1z"/>
	<path fill="#CECECE" d="M163.7,51.1c-0.8-0.5-1.5-1.2-2-2.1c-0.5-0.9-0.7-1.9-0.7-3c0-1.1,0.2-2.1,0.7-3s1.1-1.6,2-2.1
		c0.8-0.5,1.8-0.8,2.9-0.8c1.1,0,2.1,0.3,2.9,0.8s1.5,1.2,2,2.1s0.7,1.9,0.7,3c0,1.1-0.2,2.1-0.7,3c-0.5,0.9-1.1,1.6-2,2.1
		s-1.8,0.8-2.9,0.8C165.6,51.9,164.6,51.6,163.7,51.1z M169.2,48.9c0.6-0.8,1-1.7,1-2.9c0-1.1-0.3-2.1-1-2.9
		c-0.6-0.8-1.5-1.2-2.6-1.2c-0.7,0-1.3,0.2-1.9,0.5c-0.5,0.4-0.9,0.9-1.2,1.5c-0.3,0.6-0.4,1.3-0.4,2.1c0,1.2,0.3,2.1,1,2.9
		c0.6,0.8,1.5,1.2,2.5,1.2C167.7,50.1,168.6,49.7,169.2,48.9z"/>
	<path fill="#CECECE" d="M176.6,40.5v1.4c0.4-0.6,0.9-1,1.6-1.3c0.7-0.3,1.5-0.4,2.3-0.4c2.4,0,3.6,1.2,3.6,3.6v7.8h-2v-7.2
		c0-0.9-0.2-1.5-0.6-1.9c-0.4-0.4-1-0.6-1.8-0.6c-0.5,0-1,0.1-1.4,0.3c-0.5,0.2-0.9,0.5-1.2,0.9c-0.3,0.4-0.5,0.9-0.5,1.4v7.1h-2
		V40.5H176.6z"/>
	<path fill="#CECECE" d="M189.5,40.5v1.4c0.4-0.5,1-0.9,1.6-1.2c0.7-0.3,1.3-0.4,2-0.4v2c-0.1,0-0.3,0-0.7,0c-0.4,0-0.8,0.1-1.3,0.2
		c-0.5,0.2-0.9,0.4-1.2,0.7c-0.3,0.3-0.5,0.6-0.5,0.9v7.6h-2V40.5H189.5z"/>
	<path fill="#CECECE" d="M196.3,40.5l3.5,8.8l3.5-8.8h2.1L200,53.8c-0.3,0.8-0.8,1.4-1.4,1.8c-0.6,0.4-1.3,0.6-2.1,0.6h-1.5v-1.8
		c0.3,0,0.8,0,1.4,0c0.4,0,0.7-0.1,1-0.3c0.3-0.2,0.5-0.5,0.7-0.9l0.7-1.5l-4.6-11.2H196.3z"/>
</g>
<g>
	<path fill="#557F98" d="M104.7,73.9c0,0-18.4,0-18.8,0c-0.9,0-1.8-2.1-2.7-2.1c-0.5,0-9.1,0-9.1,0c-0.9,0-1.6,0.7-1.6,1.6v2.1v4.1
		v15.5c0,0.9,0.7,1.6,1.6,1.6h30.5c0.9,0,1.6-0.7,1.6-1.6V75.5C106.3,74.6,105.6,73.9,104.7,73.9z"/>
	<path fill="#78B4D5" d="M103.5,98H75.3c-1.5,0-2.7-1.2-2.7-2.7V78.1c0-1.5,1.2-2.7,2.7-2.7h28.2c1.5,0,2.7,1.2,2.7,2.7v17.3
		C106.3,96.8,105,98,103.5,98z"/>
</g>
<g>
	<path fill="#CECECE" d="M126.4,79.2c1,0,1.9,0.2,2.6,0.6c0.7,0.4,1.3,1,1.7,1.7c0.4,0.7,0.6,1.5,0.6,2.4c0,0.9-0.2,1.6-0.6,2.4
		c-0.4,0.7-1,1.3-1.7,1.7c-0.7,0.4-1.6,0.6-2.6,0.6h-4.2v6H120V79.2H126.4z M122.2,86.6h4c0.8,0,1.5-0.3,2-0.8
		c0.5-0.5,0.8-1.2,0.8-2c0-0.8-0.3-1.5-0.8-2c-0.5-0.5-1.2-0.7-2-0.7h-4V86.6z"/>
	<path fill="#CECECE" d="M133.7,79.2v12.2c0,0.4,0.1,0.8,0.3,1c0.2,0.2,0.5,0.4,0.8,0.4h1.1v1.8h-1.6c-1.7,0-2.6-0.9-2.6-2.7V79.2
		H133.7z"/>
	<path fill="#CECECE" d="M142.2,83.1c1.3,0,2.4,0.3,3.2,0.9c0.8,0.6,1.2,1.6,1.2,2.9v7.5h-2v-1c-0.4,0.5-0.9,0.8-1.5,1
		c-0.6,0.2-1.3,0.3-2.1,0.3c-1.1,0-2-0.3-2.7-0.9c-0.8-0.6-1.1-1.4-1.1-2.6c0-0.7,0.2-1.3,0.5-1.9c0.4-0.5,0.8-0.9,1.4-1.2
		s1.2-0.4,1.9-0.4c1.1,0,1.9,0,2.5,0c0.6,0,1-0.1,1.2-0.2v-0.9c0-0.7-0.2-1.2-0.7-1.6c-0.5-0.4-1.2-0.6-2-0.6
		c-0.6,0-1.2,0.1-1.8,0.4c-0.6,0.3-1.1,0.6-1.6,1.1l-0.9-1.2C138.8,83.7,140.4,83.1,142.2,83.1z M143.7,93c0.6-0.3,0.9-0.7,0.9-1.4
		v-2.4c-0.4,0.1-1,0.1-1.7,0.1h-1.2c-0.8,0-1.4,0.2-1.9,0.6c-0.5,0.4-0.7,0.9-0.7,1.5c0,0.7,0.2,1.2,0.7,1.5
		c0.5,0.3,1.1,0.5,1.9,0.5C142.5,93.4,143.1,93.2,143.7,93z"/>
	<path fill="#CECECE" d="M150.6,83.4l3.5,8.8l3.5-8.8h2.1l-5.5,13.3c-0.3,0.8-0.8,1.4-1.4,1.8c-0.6,0.4-1.3,0.6-2.1,0.6h-1.5v-1.8
		c0.3,0,0.8,0,1.4,0c0.4,0,0.7-0.1,1-0.3c0.3-0.2,0.5-0.5,0.7-0.9l0.7-1.5l-4.6-11.2H150.6z"/>
	<path fill="#CECECE" d="M171,93.1c-0.6,0.6-1.2,1-2,1.3c-0.8,0.3-1.6,0.4-2.4,0.4c-1.1,0-2.1-0.2-3-0.7c-0.9-0.5-1.5-1.2-2-2.1
		s-0.7-1.9-0.7-3c0-1.1,0.2-2.1,0.7-3c0.5-0.9,1.1-1.6,2-2.1c0.8-0.5,1.8-0.8,2.8-0.8c1.1,0,2,0.3,2.8,0.8c0.8,0.5,1.5,1.2,1.9,2.1
		c0.4,0.9,0.7,1.9,0.7,3.1v0.5h-8.8c0.1,1,0.5,1.9,1.1,2.6s1.6,1,2.7,1c0.6,0,1.2-0.1,1.8-0.3c0.6-0.2,1.1-0.6,1.5-1L171,93.1z
		 M169.3,86.4c-0.3-0.5-0.7-0.9-1.2-1.3c-0.5-0.3-1.1-0.5-1.8-0.5c-0.7,0-1.3,0.2-1.8,0.5c-0.5,0.3-0.9,0.8-1.2,1.3
		c-0.3,0.5-0.4,1.1-0.5,1.6h6.9C169.7,87.5,169.6,86.9,169.3,86.4z"/>
	<path fill="#CECECE" d="M176.3,83.4v1.4c0.4-0.5,1-0.9,1.6-1.2c0.7-0.3,1.3-0.4,2-0.4v2c-0.1,0-0.3,0-0.7,0c-0.4,0-0.8,0.1-1.3,0.2
		c-0.5,0.2-0.9,0.4-1.2,0.7c-0.3,0.3-0.5,0.6-0.5,0.9v7.6h-2V83.4H176.3z"/>
</g>
<g>
	<path fill="#557F98" d="M104.7,116.8c0,0-18.4,0-18.8,0c-0.9,0-1.8-2.1-2.7-2.1c-0.5,0-9.1,0-9.1,0c-0.9,0-1.6,0.7-1.6,1.6v2.1v4.1
		V138c0,0.9,0.7,1.6,1.6,1.6h30.5c0.9,0,1.6-0.7,1.6-1.6v-19.6C106.3,117.5,105.6,116.8,104.7,116.8z"/>
	<path fill="#78B4D5" d="M103.5,140.9H75.3c-1.5,0-2.7-1.2-2.7-2.7V121c0-1.5,1.2-2.7,2.7-2.7h28.2c1.5,0,2.7,1.2,2.7,2.7v17.3
		C106.3,139.7,105,140.9,103.5,140.9z"/>
</g>
<g>
	<path fill="#CECECE" d="M120,135.3c0.2-0.2,0.6-0.3,1-0.3c0.4,0,0.7,0.1,1,0.3c0.2,0.2,0.3,0.6,0.3,1c0,0.4-0.1,0.8-0.3,1
		c-0.2,0.2-0.5,0.3-1,0.3s-0.7-0.1-1-0.3c-0.2-0.2-0.3-0.5-0.3-1C119.6,135.9,119.8,135.5,120,135.3z"/>
	<path fill="#CECECE" d="M125.5,135.3c0.2-0.2,0.6-0.3,1-0.3c0.4,0,0.7,0.1,1,0.3c0.2,0.2,0.3,0.6,0.3,1c0,0.4-0.1,0.8-0.3,1
		c-0.2,0.2-0.5,0.3-1,0.3s-0.7-0.1-1-0.3c-0.2-0.2-0.3-0.5-0.3-1C125.1,135.9,125.2,135.5,125.5,135.3z"/>
	<path fill="#CECECE" d="M130.9,135.3c0.2-0.2,0.6-0.3,1-0.3c0.4,0,0.7,0.1,1,0.3c0.2,0.2,0.3,0.6,0.3,1c0,0.4-0.1,0.8-0.3,1
		c-0.2,0.2-0.5,0.3-1,0.3s-0.7-0.1-1-0.3c-0.2-0.2-0.3-0.5-0.3-1C130.5,135.9,130.7,135.5,130.9,135.3z"/>
</g>
<line fill="none" stroke="#575757" stroke-miterlimit="10" x1="48.2" y1="148.2" x2="48.2" y2="24.5"/>
<g>
	<path fill="#CECECE" d="M389.7,78.9c0.9,0,1.8,0.2,2.5,0.5c0.7,0.4,1.3,0.9,1.7,1.6s0.6,1.5,0.6,2.4v2.3c0,0.9-0.2,1.8-0.6,2.4
		c-0.4,0.7-1,1.2-1.7,1.6c-0.7,0.4-1.5,0.5-2.5,0.5h-4.3V78.9H389.7z M387,88.8h2.7c1,0,1.7-0.3,2.3-0.8c0.5-0.6,0.8-1.3,0.8-2.3
		v-2.3c0-1-0.3-1.7-0.8-2.3c-0.5-0.5-1.3-0.8-2.3-0.8H387V88.8z"/>
	<path fill="#CECECE" d="M398.2,82v1c0.3-0.4,0.7-0.7,1.2-0.9s1-0.3,1.5-0.3v1.5c-0.1,0-0.2,0-0.5,0c-0.3,0-0.6,0.1-0.9,0.2
		c-0.3,0.1-0.6,0.3-0.9,0.5c-0.2,0.2-0.4,0.4-0.4,0.7v5.6h-1.5V82H398.2z"/>
	<path fill="#CECECE" d="M405.4,81.8c1,0,1.8,0.2,2.4,0.7s0.9,1.2,0.9,2.1v5.6h-1.5v-0.7c-0.3,0.3-0.7,0.6-1.1,0.7
		c-0.5,0.1-1,0.2-1.6,0.2c-0.8,0-1.5-0.2-2-0.7c-0.6-0.4-0.8-1.1-0.8-1.9c0-0.5,0.1-1,0.4-1.4c0.3-0.4,0.6-0.7,1.1-0.9
		c0.4-0.2,0.9-0.3,1.4-0.3c0.8,0,1.4,0,1.8,0c0.4,0,0.7-0.1,0.9-0.1v-0.6c0-0.5-0.2-0.9-0.6-1.2c-0.4-0.3-0.9-0.4-1.5-0.4
		c-0.5,0-0.9,0.1-1.3,0.3c-0.4,0.2-0.8,0.5-1.2,0.8l-0.6-0.9C402.9,82.3,404,81.8,405.4,81.8z M406.5,89.1c0.4-0.2,0.6-0.5,0.7-1
		v-1.8c-0.3,0.1-0.7,0.1-1.3,0.1H405c-0.6,0-1,0.1-1.4,0.4c-0.4,0.3-0.5,0.7-0.5,1.1c0,0.5,0.2,0.9,0.5,1.1s0.8,0.4,1.4,0.4
		C405.6,89.4,406.1,89.3,406.5,89.1z"/>
	<path fill="#CECECE" d="M412.6,93.3c-0.5-0.2-1-0.5-1.5-1l0.7-1.1c0.3,0.4,0.7,0.7,1.1,0.8c0.4,0.2,0.9,0.3,1.5,0.3
		c0.7,0,1.4-0.2,1.8-0.6c0.5-0.4,0.7-1,0.7-1.8v-1c-0.5,0.9-1.4,1.4-2.7,1.4c-0.7,0-1.3-0.2-1.9-0.5c-0.5-0.3-1-0.8-1.3-1.5
		c-0.3-0.6-0.5-1.4-0.5-2.3c0-0.9,0.2-1.6,0.5-2.3c0.3-0.6,0.7-1.1,1.3-1.5s1.2-0.5,1.9-0.5c0.6,0,1.1,0.1,1.6,0.2
		c0.4,0.2,0.8,0.5,1.1,0.9v-1h1.5v7.9c0,1.3-0.4,2.2-1.1,2.8c-0.8,0.6-1.7,0.9-2.9,0.9C413.7,93.6,413.1,93.5,412.6,93.3z
		 M416.3,88.4c0.5-0.4,0.7-1,0.7-1.9v-1.3c0-0.8-0.2-1.3-0.7-1.7c-0.5-0.3-1-0.5-1.6-0.5c-0.8,0-1.4,0.3-1.8,0.8
		c-0.5,0.5-0.7,1.3-0.7,2.2c0,0.9,0.2,1.6,0.7,2.1c0.5,0.5,1.1,0.8,1.8,0.8C415.3,89,415.8,88.8,416.3,88.4z"/>
	<path fill="#CECECE" d="M425.6,79.8h1.5V82h1.7v1.3h-1.7v4.6c0,0.3,0.1,0.6,0.2,0.8c0.1,0.2,0.3,0.3,0.6,0.3h0.8v1.3h-1.2
		c-1.3,0-1.9-0.7-1.9-2v-4.9h-1.4V82h1.4V79.8z"/>
	<path fill="#CECECE" d="M431.9,78.9v4.3c0.2-0.4,0.6-0.8,1.2-1s1.1-0.4,1.8-0.4c1.8,0,2.6,0.9,2.6,2.6v5.8H436v-5.3
		c0-0.6-0.1-1.1-0.4-1.4c-0.3-0.3-0.7-0.4-1.3-0.4c-0.3,0-0.7,0.1-1,0.2c-0.4,0.2-0.7,0.4-0.9,0.7c-0.2,0.3-0.4,0.6-0.4,0.9v5.3
		h-1.5V78.9H431.9z"/>
	<path fill="#CECECE" d="M447,89.2c-0.4,0.4-0.9,0.7-1.5,0.9c-0.6,0.2-1.2,0.3-1.8,0.3c-0.8,0-1.5-0.2-2.2-0.5
		c-0.6-0.4-1.1-0.9-1.5-1.5c-0.4-0.7-0.5-1.4-0.5-2.3c0-0.8,0.2-1.5,0.5-2.2s0.8-1.2,1.5-1.5c0.6-0.4,1.3-0.6,2.1-0.6
		c0.8,0,1.5,0.2,2.1,0.6c0.6,0.4,1.1,0.9,1.4,1.6c0.3,0.7,0.5,1.4,0.5,2.3v0.3H441c0.1,0.8,0.3,1.4,0.8,1.9s1.2,0.7,2,0.7
		c0.5,0,0.9-0.1,1.3-0.3s0.8-0.4,1.1-0.7L447,89.2z M445.8,84.3c-0.2-0.4-0.5-0.7-0.9-0.9c-0.4-0.2-0.8-0.3-1.3-0.3
		c-0.5,0-0.9,0.1-1.3,0.4s-0.7,0.6-0.9,1c-0.2,0.4-0.3,0.8-0.4,1.2h5.1C446.1,85.1,446,84.7,445.8,84.3z"/>
	<path fill="#CECECE" d="M458.6,78.9c0.7,0,1.4,0.1,1.9,0.4c0.5,0.3,1,0.7,1.3,1.2c0.3,0.5,0.5,1.1,0.5,1.8c0,0.6-0.1,1.2-0.4,1.7
		s-0.6,0.9-1,1.1c-0.4,0.3-0.9,0.4-1.4,0.5l3,4.6h-1.9l-2.8-4.4h-2.2v4.4h-1.6V78.9H458.6z M455.5,84.4h2.9c0.6,0,1.1-0.2,1.5-0.6
		s0.6-0.9,0.6-1.5s-0.2-1.1-0.6-1.5s-0.9-0.6-1.5-0.6h-2.9V84.4z"/>
	<path fill="#CECECE" d="M470.8,89.2c-0.4,0.4-0.9,0.7-1.5,0.9c-0.6,0.2-1.2,0.3-1.8,0.3c-0.8,0-1.5-0.2-2.2-0.5
		c-0.6-0.4-1.1-0.9-1.5-1.5c-0.4-0.7-0.5-1.4-0.5-2.3c0-0.8,0.2-1.5,0.5-2.2s0.8-1.2,1.5-1.5c0.6-0.4,1.3-0.6,2.1-0.6
		c0.8,0,1.5,0.2,2.1,0.6c0.6,0.4,1.1,0.9,1.4,1.6c0.3,0.7,0.5,1.4,0.5,2.3v0.3h-6.5c0.1,0.8,0.3,1.4,0.8,1.9s1.2,0.7,2,0.7
		c0.5,0,0.9-0.1,1.3-0.3s0.8-0.4,1.1-0.7L470.8,89.2z M469.6,84.3c-0.2-0.4-0.5-0.7-0.9-0.9c-0.4-0.2-0.8-0.3-1.3-0.3
		c-0.5,0-0.9,0.1-1.3,0.4s-0.7,0.6-0.9,1c-0.2,0.4-0.3,0.8-0.4,1.2h5.1C470,85.1,469.8,84.7,469.6,84.3z"/>
	<path fill="#CECECE" d="M476.2,81.8c1,0,1.8,0.2,2.4,0.7s0.9,1.2,0.9,2.1v5.6H478v-0.7c-0.3,0.3-0.7,0.6-1.1,0.7
		c-0.5,0.1-1,0.2-1.6,0.2c-0.8,0-1.5-0.2-2-0.7c-0.6-0.4-0.8-1.1-0.8-1.9c0-0.5,0.1-1,0.4-1.4c0.3-0.4,0.6-0.7,1.1-0.9
		c0.4-0.2,0.9-0.3,1.4-0.3c0.8,0,1.4,0,1.8,0c0.4,0,0.7-0.1,0.9-0.1v-0.6c0-0.5-0.2-0.9-0.6-1.2c-0.4-0.3-0.9-0.4-1.5-0.4
		c-0.5,0-0.9,0.1-1.3,0.3c-0.4,0.2-0.8,0.5-1.2,0.8l-0.6-0.9C473.8,82.3,474.9,81.8,476.2,81.8z M477.3,89.1c0.4-0.2,0.6-0.5,0.7-1
		v-1.8c-0.3,0.1-0.7,0.1-1.3,0.1h-0.9c-0.6,0-1,0.1-1.4,0.4c-0.4,0.3-0.5,0.7-0.5,1.1c0,0.5,0.2,0.9,0.5,1.1s0.8,0.4,1.4,0.4
		C476.4,89.4,476.9,89.3,477.3,89.1z"/>
	<path fill="#CECECE" d="M483,89.9c-0.6-0.4-1.1-0.9-1.5-1.5c-0.4-0.7-0.5-1.4-0.5-2.2c0-0.8,0.2-1.6,0.5-2.2
		c0.4-0.7,0.8-1.2,1.5-1.5s1.3-0.6,2.1-0.6c0.7,0,1.3,0.1,1.8,0.4s0.9,0.6,1.3,1.1l-1,0.9c-0.5-0.7-1.2-1-2-1
		c-0.8,0-1.4,0.3-1.9,0.8c-0.5,0.6-0.7,1.3-0.7,2.2c0,0.9,0.2,1.6,0.7,2.2c0.5,0.6,1.1,0.8,1.9,0.8c0.9,0,1.5-0.3,2-1l1,0.9
		c-0.4,0.5-0.8,0.8-1.3,1.1s-1.1,0.4-1.8,0.4C484.3,90.5,483.6,90.3,483,89.9z"/>
	<path fill="#CECECE" d="M490.2,79.8h1.5V82h1.7v1.3h-1.7v4.6c0,0.3,0.1,0.6,0.2,0.8c0.1,0.2,0.3,0.3,0.6,0.3h0.8v1.3h-1.2
		c-1.3,0-1.9-0.7-1.9-2v-4.9h-1.4V82h1.4V79.8z"/>
	<path fill="#CECECE" d="M500.9,89.9c-0.6-0.4-1.1-0.9-1.5-1.5s-0.5-1.4-0.5-2.2c0-0.8,0.2-1.6,0.5-2.2c0.4-0.7,0.8-1.2,1.5-1.5
		c0.6-0.4,1.3-0.6,2.1-0.6c0.7,0,1.3,0.1,1.8,0.4s0.9,0.6,1.3,1.1l-1,0.9c-0.5-0.7-1.2-1-2-1c-0.8,0-1.4,0.3-1.9,0.8
		c-0.5,0.6-0.7,1.3-0.7,2.2c0,0.9,0.2,1.6,0.7,2.2c0.5,0.6,1.1,0.8,1.9,0.8c0.8,0,1.5-0.3,2-1l1,0.9c-0.4,0.5-0.8,0.8-1.3,1.1
		s-1.1,0.4-1.8,0.4C502.3,90.5,501.6,90.3,500.9,89.9z"/>
	<path fill="#CECECE" d="M509.3,89.9c-0.6-0.4-1.1-0.9-1.4-1.6c-0.3-0.7-0.5-1.4-0.5-2.2s0.2-1.5,0.5-2.2c0.3-0.7,0.8-1.2,1.4-1.5
		c0.6-0.4,1.3-0.6,2.2-0.6c0.8,0,1.6,0.2,2.2,0.6c0.6,0.4,1.1,0.9,1.4,1.5c0.3,0.7,0.5,1.4,0.5,2.2s-0.2,1.5-0.5,2.2
		s-0.8,1.2-1.4,1.6c-0.6,0.4-1.3,0.6-2.2,0.6C510.6,90.5,509.9,90.3,509.3,89.9z M513.4,88.3c0.5-0.6,0.7-1.3,0.7-2.2
		c0-0.8-0.2-1.6-0.7-2.1c-0.5-0.6-1.1-0.9-1.9-0.9c-0.5,0-1,0.1-1.4,0.4c-0.4,0.3-0.7,0.6-0.9,1.1s-0.3,1-0.3,1.5
		c0,0.9,0.2,1.6,0.7,2.2c0.5,0.6,1.1,0.9,1.9,0.9C512.3,89.1,512.9,88.9,513.4,88.3z"/>
	<path fill="#CECECE" d="M518.8,82v0.9c0.2-0.3,0.6-0.6,1.1-0.8c0.5-0.2,1-0.3,1.6-0.3c1.1,0,1.9,0.5,2.3,1.4c0.2-0.4,0.6-0.8,1.1-1
		c0.5-0.2,1-0.4,1.6-0.4c0.8,0,1.3,0.2,1.8,0.6c0.4,0.4,0.6,1,0.6,1.9v5.9h-1.5v-5.5c0-0.5-0.1-0.9-0.4-1.2
		c-0.2-0.3-0.6-0.4-1.1-0.4c-0.3,0-0.6,0.1-0.9,0.2s-0.6,0.3-0.8,0.6c-0.2,0.2-0.3,0.5-0.3,0.9v5.5h-1.5v-5.5c0-0.5-0.1-0.9-0.4-1.2
		c-0.2-0.3-0.6-0.4-1.1-0.4c-0.3,0-0.6,0.1-0.9,0.2c-0.3,0.1-0.6,0.3-0.8,0.6c-0.2,0.2-0.3,0.5-0.3,0.9v5.5h-1.5V82H518.8z"/>
	<path fill="#CECECE" d="M532.7,89v4.3h-1.5V82h1.5v1.2c0.3-0.4,0.7-0.8,1.2-1s1-0.4,1.5-0.4c0.7,0,1.3,0.2,1.9,0.5s1,0.8,1.3,1.5
		c0.3,0.6,0.5,1.4,0.5,2.3c0,0.9-0.2,1.6-0.5,2.3c-0.3,0.7-0.7,1.2-1.3,1.5c-0.6,0.4-1.2,0.5-1.9,0.5C534.2,90.5,533.3,90,532.7,89z
		 M536.9,88.3c0.5-0.6,0.7-1.3,0.7-2.2c0-0.9-0.2-1.6-0.7-2.2c-0.5-0.6-1.1-0.8-1.8-0.8c-0.3,0-0.7,0.1-1,0.3s-0.7,0.5-0.9,0.8
		s-0.4,0.7-0.4,1.2v1.4c0,0.6,0.1,1,0.4,1.4c0.2,0.4,0.5,0.6,0.9,0.8s0.7,0.2,1.1,0.2C535.8,89.1,536.4,88.9,536.9,88.3z"/>
	<path fill="#CECECE" d="M542.5,89.9c-0.6-0.4-1.1-0.9-1.4-1.6c-0.3-0.7-0.5-1.4-0.5-2.2s0.2-1.5,0.5-2.2c0.3-0.7,0.8-1.2,1.4-1.5
		c0.6-0.4,1.3-0.6,2.2-0.6c0.8,0,1.6,0.2,2.2,0.6c0.6,0.4,1.1,0.9,1.4,1.5c0.3,0.7,0.5,1.4,0.5,2.2s-0.2,1.5-0.5,2.2
		s-0.8,1.2-1.4,1.6c-0.6,0.4-1.3,0.6-2.2,0.6C543.8,90.5,543.1,90.3,542.5,89.9z M546.5,88.3c0.5-0.6,0.7-1.3,0.7-2.2
		c0-0.8-0.2-1.6-0.7-2.1c-0.5-0.6-1.1-0.9-1.9-0.9c-0.5,0-1,0.1-1.4,0.4c-0.4,0.3-0.7,0.6-0.9,1.1s-0.3,1-0.3,1.5
		c0,0.9,0.2,1.6,0.7,2.2c0.5,0.6,1.1,0.9,1.9,0.9C545.4,89.1,546.1,88.9,546.5,88.3z"/>
	<path fill="#CECECE" d="M552,82v1c0.3-0.4,0.7-0.7,1.2-0.9s1.1-0.3,1.7-0.3c1.8,0,2.6,0.9,2.6,2.7v5.8h-1.5V85
		c0-0.6-0.2-1.1-0.5-1.4c-0.3-0.3-0.7-0.4-1.3-0.4c-0.4,0-0.7,0.1-1.1,0.2c-0.4,0.1-0.7,0.3-0.9,0.6c-0.2,0.3-0.4,0.6-0.4,1.1v5.2
		h-1.5V82H552z"/>
	<path fill="#CECECE" d="M567.1,89.2c-0.4,0.4-0.9,0.7-1.5,0.9c-0.6,0.2-1.2,0.3-1.8,0.3c-0.8,0-1.5-0.2-2.2-0.5
		c-0.6-0.4-1.1-0.9-1.5-1.5c-0.4-0.7-0.5-1.4-0.5-2.3c0-0.8,0.2-1.5,0.5-2.2s0.8-1.2,1.5-1.5c0.6-0.4,1.3-0.6,2.1-0.6
		c0.8,0,1.5,0.2,2.1,0.6c0.6,0.4,1.1,0.9,1.4,1.6c0.3,0.7,0.5,1.4,0.5,2.3v0.3h-6.5c0.1,0.8,0.3,1.4,0.8,1.9s1.2,0.7,2,0.7
		c0.5,0,0.9-0.1,1.3-0.3s0.8-0.4,1.1-0.7L567.1,89.2z M565.8,84.3c-0.2-0.4-0.5-0.7-0.9-0.9c-0.4-0.2-0.8-0.3-1.3-0.3
		c-0.5,0-0.9,0.1-1.3,0.4s-0.7,0.6-0.9,1c-0.2,0.4-0.3,0.8-0.4,1.2h5.1C566.2,85.1,566,84.7,565.8,84.3z"/>
	<path fill="#CECECE" d="M571,82v1c0.3-0.4,0.7-0.7,1.2-0.9c0.5-0.2,1.1-0.3,1.7-0.3c1.8,0,2.6,0.9,2.6,2.7v5.8h-1.5V85
		c0-0.6-0.2-1.1-0.5-1.4c-0.3-0.3-0.7-0.4-1.3-0.4c-0.4,0-0.7,0.1-1.1,0.2c-0.4,0.1-0.7,0.3-0.9,0.6S571,84.6,571,85v5.2h-1.5V82
		H571z"/>
	<path fill="#CECECE" d="M579.3,79.8h1.5V82h1.7v1.3h-1.7v4.6c0,0.3,0.1,0.6,0.2,0.8c0.1,0.2,0.3,0.3,0.6,0.3h0.8v1.3h-1.2
		c-1.3,0-1.9-0.7-1.9-2v-4.9H578V82h1.4V79.8z"/>
	<path fill="#CECECE" d="M589,82l2.6,6.5l2.6-6.5h1.6l-4,9.8c-0.2,0.6-0.6,1.1-1,1.3c-0.4,0.3-0.9,0.4-1.6,0.4h-1.1v-1.3
		c0.2,0,0.6,0,1,0c0.3,0,0.5-0.1,0.7-0.2c0.2-0.1,0.4-0.3,0.5-0.6l0.5-1.1l-3.4-8.3H589z"/>
	<path fill="#CECECE" d="M598.6,89.9c-0.6-0.4-1.1-0.9-1.4-1.6c-0.3-0.7-0.5-1.4-0.5-2.2s0.2-1.5,0.5-2.2c0.3-0.7,0.8-1.2,1.4-1.5
		c0.6-0.4,1.3-0.6,2.2-0.6c0.8,0,1.6,0.2,2.2,0.6c0.6,0.4,1.1,0.9,1.4,1.5c0.3,0.7,0.5,1.4,0.5,2.2s-0.2,1.5-0.5,2.2
		s-0.8,1.2-1.4,1.6c-0.6,0.4-1.3,0.6-2.2,0.6C599.9,90.5,599.2,90.3,598.6,89.9z M602.6,88.3c0.5-0.6,0.7-1.3,0.7-2.2
		c0-0.8-0.2-1.6-0.7-2.1c-0.5-0.6-1.1-0.9-1.9-0.9c-0.5,0-1,0.1-1.4,0.4c-0.4,0.3-0.7,0.6-0.9,1.1s-0.3,1-0.3,1.5
		c0,0.9,0.2,1.6,0.7,2.2c0.5,0.6,1.1,0.9,1.9,0.9C601.5,89.1,602.2,88.9,602.6,88.3z"/>
	<path fill="#CECECE" d="M607.9,82v5.3c0,0.6,0.1,1.1,0.4,1.4s0.7,0.4,1.3,0.4c0.6,0,1.1-0.1,1.6-0.4s0.7-0.7,0.7-1.3V82h1.5v8.2
		H612v-1c-0.3,0.4-0.7,0.7-1.2,0.9c-0.5,0.2-1.1,0.3-1.7,0.3c-1.7,0-2.6-0.9-2.6-2.6V82H607.9z"/>
	<path fill="#CECECE" d="M621.7,82v1c0.3-0.4,0.7-0.7,1.2-0.9s1.1-0.3,1.7-0.3c1.8,0,2.6,0.9,2.6,2.7v5.8h-1.5V85
		c0-0.6-0.2-1.1-0.5-1.4c-0.3-0.3-0.7-0.4-1.3-0.4c-0.4,0-0.7,0.1-1.1,0.2c-0.4,0.1-0.7,0.3-0.9,0.6c-0.2,0.3-0.4,0.6-0.4,1.1v5.2
		h-1.5V82H621.7z"/>
	<path fill="#CECECE" d="M636.8,89.2c-0.4,0.4-0.9,0.7-1.5,0.9c-0.6,0.2-1.2,0.3-1.8,0.3c-0.8,0-1.5-0.2-2.2-0.5
		c-0.6-0.4-1.1-0.9-1.5-1.5c-0.4-0.7-0.5-1.4-0.5-2.3c0-0.8,0.2-1.5,0.5-2.2s0.8-1.2,1.5-1.5c0.6-0.4,1.3-0.6,2.1-0.6
		c0.8,0,1.5,0.2,2.1,0.6c0.6,0.4,1.1,0.9,1.4,1.6c0.3,0.7,0.5,1.4,0.5,2.3v0.3h-6.5c0.1,0.8,0.3,1.4,0.8,1.9s1.2,0.7,2,0.7
		c0.5,0,0.9-0.1,1.3-0.3s0.8-0.4,1.1-0.7L636.8,89.2z M635.6,84.3c-0.2-0.4-0.5-0.7-0.9-0.9c-0.4-0.2-0.8-0.3-1.3-0.3
		c-0.5,0-0.9,0.1-1.3,0.4s-0.7,0.6-0.9,1c-0.2,0.4-0.3,0.8-0.4,1.2h5.1C635.9,85.1,635.8,84.7,635.6,84.3z"/>
	<path fill="#CECECE" d="M646.3,89.2c-0.4,0.4-0.9,0.7-1.5,0.9c-0.6,0.2-1.2,0.3-1.8,0.3c-0.8,0-1.5-0.2-2.2-0.5
		c-0.6-0.4-1.1-0.9-1.5-1.5c-0.4-0.7-0.5-1.4-0.5-2.3c0-0.8,0.2-1.5,0.5-2.2c0.4-0.7,0.8-1.2,1.5-1.5c0.6-0.4,1.3-0.6,2.1-0.6
		c0.8,0,1.5,0.2,2.1,0.6c0.6,0.4,1.1,0.9,1.4,1.6s0.5,1.4,0.5,2.3v0.3h-6.5c0.1,0.8,0.3,1.4,0.9,1.9c0.5,0.5,1.2,0.7,2,0.7
		c0.5,0,0.9-0.1,1.3-0.3s0.8-0.4,1.1-0.7L646.3,89.2z M645.1,84.3c-0.2-0.4-0.5-0.7-0.9-0.9c-0.4-0.2-0.8-0.3-1.3-0.3
		c-0.5,0-0.9,0.1-1.3,0.4s-0.7,0.6-0.9,1c-0.2,0.4-0.3,0.8-0.4,1.2h5.1C645.4,85.1,645.3,84.7,645.1,84.3z"/>
	<path fill="#CECECE" d="M656.2,78.9v11.3h-1.5v-1c-0.6,0.8-1.5,1.2-2.7,1.2c-0.7,0-1.3-0.2-1.9-0.5s-1-0.8-1.3-1.5
		c-0.3-0.7-0.5-1.4-0.5-2.3c0-0.9,0.2-1.6,0.5-2.3c0.3-0.7,0.7-1.2,1.3-1.5c0.6-0.4,1.2-0.5,1.9-0.5c0.6,0,1,0.1,1.5,0.3
		s0.8,0.5,1.2,1v-4.2H656.2z M654.3,84.1c-0.2-0.3-0.6-0.6-0.9-0.8c-0.4-0.2-0.7-0.2-1-0.2c-0.8,0-1.4,0.3-1.8,0.8
		c-0.5,0.6-0.7,1.3-0.7,2.2c0,0.9,0.2,1.6,0.7,2.2s1.1,0.8,1.8,0.8c0.6,0,1.2-0.2,1.6-0.5c0.5-0.4,0.7-1,0.7-2v-1.2
		C654.7,84.9,654.6,84.5,654.3,84.1z"/>
	<path fill="#CECECE" d="M663.3,79.8h1.5V82h1.7v1.3h-1.7v4.6c0,0.3,0.1,0.6,0.2,0.8s0.3,0.3,0.6,0.3h0.8v1.3h-1.2
		c-1.3,0-1.9-0.7-1.9-2v-4.9H662V82h1.4V79.8z"/>
	<path fill="#CECECE" d="M669.6,89.9c-0.6-0.4-1.1-0.9-1.4-1.6c-0.3-0.7-0.5-1.4-0.5-2.2s0.2-1.5,0.5-2.2c0.3-0.7,0.8-1.2,1.4-1.5
		c0.6-0.4,1.3-0.6,2.2-0.6c0.8,0,1.6,0.2,2.2,0.6c0.6,0.4,1.1,0.9,1.4,1.5c0.3,0.7,0.5,1.4,0.5,2.2s-0.2,1.5-0.5,2.2
		s-0.8,1.2-1.4,1.6c-0.6,0.4-1.3,0.6-2.2,0.6C671,90.5,670.3,90.3,669.6,89.9z M673.7,88.3c0.5-0.6,0.7-1.3,0.7-2.2
		c0-0.8-0.2-1.6-0.7-2.1c-0.5-0.6-1.1-0.9-1.9-0.9c-0.5,0-1,0.1-1.4,0.4c-0.4,0.3-0.7,0.6-0.9,1.1s-0.3,1-0.3,1.5
		c0,0.9,0.2,1.6,0.7,2.2c0.5,0.6,1.1,0.9,1.9,0.9C672.6,89.1,673.2,88.9,673.7,88.3z"/>
	<path fill="#CECECE" d="M385.6,100.2h1.5v2.2h1.7v1.3h-1.7v4.6c0,0.3,0.1,0.6,0.2,0.8c0.1,0.2,0.3,0.3,0.6,0.3h0.8v1.3h-1.2
		c-1.3,0-1.9-0.7-1.9-2v-4.9h-1.4v-1.3h1.4V100.2z"/>
	<path fill="#CECECE" d="M391.9,99.3v4.3c0.2-0.4,0.6-0.8,1.2-1s1.1-0.4,1.8-0.4c1.8,0,2.6,0.9,2.6,2.6v5.8H396v-5.3
		c0-0.6-0.1-1.1-0.4-1.4c-0.3-0.3-0.7-0.4-1.3-0.4c-0.3,0-0.7,0.1-1,0.2c-0.4,0.2-0.7,0.4-0.9,0.7c-0.2,0.3-0.4,0.6-0.4,0.9v5.3
		h-1.5V99.3H391.9z"/>
	<path fill="#CECECE" d="M407,109.6c-0.4,0.4-0.9,0.7-1.5,0.9c-0.6,0.2-1.2,0.3-1.8,0.3c-0.8,0-1.5-0.2-2.2-0.5
		c-0.6-0.4-1.1-0.9-1.5-1.5c-0.4-0.7-0.5-1.4-0.5-2.3c0-0.8,0.2-1.5,0.5-2.2c0.4-0.7,0.8-1.2,1.5-1.5c0.6-0.4,1.3-0.6,2.1-0.6
		c0.8,0,1.5,0.2,2.1,0.6c0.6,0.4,1.1,0.9,1.4,1.6s0.5,1.4,0.5,2.3v0.3H401c0.1,0.8,0.3,1.4,0.9,1.9c0.5,0.5,1.2,0.7,2,0.7
		c0.5,0,0.9-0.1,1.3-0.3s0.8-0.4,1.1-0.7L407,109.6z M405.8,104.7c-0.2-0.4-0.5-0.7-0.9-0.9c-0.4-0.2-0.8-0.3-1.3-0.3
		c-0.5,0-0.9,0.1-1.3,0.4s-0.7,0.6-0.9,1c-0.2,0.4-0.3,0.8-0.4,1.2h5.1C406.1,105.5,406,105.1,405.8,104.7z"/>
	<path fill="#CECECE" d="M418.3,99.3c0.9,0,1.8,0.2,2.5,0.5c0.7,0.4,1.3,0.9,1.7,1.6s0.6,1.5,0.6,2.4v2.3c0,0.9-0.2,1.8-0.6,2.4
		c-0.4,0.7-1,1.2-1.7,1.6c-0.7,0.4-1.5,0.5-2.5,0.5h-4.3V99.3H418.3z M415.5,109.2h2.7c1,0,1.7-0.3,2.3-0.8c0.5-0.6,0.8-1.3,0.8-2.3
		v-2.3c0-1-0.3-1.7-0.8-2.3c-0.5-0.5-1.3-0.8-2.3-0.8h-2.7V109.2z"/>
	<path fill="#CECECE" d="M432.3,109.6c-0.4,0.4-0.9,0.7-1.5,0.9c-0.6,0.2-1.2,0.3-1.8,0.3c-0.8,0-1.5-0.2-2.2-0.5
		c-0.6-0.4-1.1-0.9-1.5-1.5c-0.4-0.7-0.5-1.4-0.5-2.3c0-0.8,0.2-1.5,0.5-2.2s0.8-1.2,1.5-1.5c0.6-0.4,1.3-0.6,2.1-0.6
		c0.8,0,1.5,0.2,2.1,0.6c0.6,0.4,1.1,0.9,1.4,1.6c0.3,0.7,0.5,1.4,0.5,2.3v0.3h-6.5c0.1,0.8,0.3,1.4,0.8,1.9s1.2,0.7,2,0.7
		c0.5,0,0.9-0.1,1.3-0.3s0.8-0.4,1.1-0.7L432.3,109.6z M431.1,104.7c-0.2-0.4-0.5-0.7-0.9-0.9c-0.4-0.2-0.8-0.3-1.3-0.3
		c-0.5,0-0.9,0.1-1.3,0.4s-0.7,0.6-0.9,1c-0.2,0.4-0.3,0.8-0.4,1.2h5.1C431.4,105.5,431.3,105.1,431.1,104.7z"/>
	<path fill="#CECECE" d="M439.9,104.4c-0.3-0.3-0.6-0.6-1-0.7c-0.4-0.2-0.9-0.3-1.4-0.3c-0.5,0-0.9,0.1-1.2,0.3
		c-0.3,0.2-0.5,0.5-0.5,0.9c0,0.3,0.2,0.6,0.5,0.8s0.8,0.3,1.5,0.5c0.6,0.2,1.2,0.3,1.6,0.5c0.4,0.2,0.7,0.4,1,0.7
		c0.3,0.3,0.4,0.8,0.4,1.3c0,0.7-0.3,1.4-0.9,1.8c-0.6,0.5-1.4,0.7-2.4,0.7c-0.7,0-1.3-0.1-1.9-0.3c-0.6-0.2-1.1-0.5-1.5-1l0.7-1
		c0.3,0.4,0.7,0.6,1.2,0.8c0.5,0.2,1,0.3,1.5,0.3c0.6,0,1-0.1,1.3-0.4c0.3-0.2,0.5-0.6,0.5-1c0-0.4-0.2-0.6-0.5-0.8
		c-0.3-0.2-0.9-0.3-1.6-0.5c-0.6-0.2-1.2-0.3-1.5-0.5c-0.4-0.1-0.7-0.4-1-0.7c-0.3-0.3-0.4-0.8-0.4-1.3c0-0.4,0.1-0.8,0.4-1.2
		s0.6-0.7,1.1-0.9c0.5-0.2,1-0.3,1.7-0.3c1.3,0,2.3,0.4,3.1,1.2L439.9,104.4z"/>
	<path fill="#CECECE" d="M442.8,99.5c0.2-0.2,0.4-0.3,0.7-0.3c0.3,0,0.5,0.1,0.7,0.3c0.2,0.2,0.2,0.4,0.2,0.7c0,0.3-0.1,0.6-0.2,0.7
		c-0.2,0.2-0.4,0.2-0.7,0.2c-0.3,0-0.6-0.1-0.7-0.2c-0.2-0.2-0.2-0.4-0.2-0.7C442.6,99.9,442.6,99.6,442.8,99.5z M444.2,102.4v8.2
		h-1.5v-8.2H444.2z"/>
	<path fill="#CECECE" d="M448.2,113.7c-0.5-0.2-1-0.5-1.5-1l0.7-1.1c0.3,0.4,0.7,0.7,1.1,0.8c0.4,0.2,0.9,0.3,1.5,0.3
		c0.7,0,1.4-0.2,1.8-0.6s0.7-1,0.7-1.8v-1c-0.5,0.9-1.4,1.4-2.7,1.4c-0.7,0-1.3-0.2-1.9-0.5c-0.6-0.3-1-0.8-1.3-1.5
		c-0.3-0.6-0.5-1.4-0.5-2.3c0-0.9,0.2-1.6,0.5-2.3c0.3-0.6,0.7-1.1,1.3-1.5c0.5-0.3,1.2-0.5,1.9-0.5c0.6,0,1.1,0.1,1.6,0.2
		c0.4,0.2,0.8,0.5,1.1,0.9v-1h1.5v7.9c0,1.3-0.4,2.2-1.1,2.8c-0.8,0.6-1.7,0.9-2.9,0.9C449.3,114,448.7,113.9,448.2,113.7z
		 M451.9,108.9c0.5-0.4,0.7-1,0.7-1.9v-1.3c0-0.8-0.2-1.3-0.7-1.7s-1-0.5-1.6-0.5c-0.8,0-1.4,0.3-1.8,0.8s-0.7,1.3-0.7,2.2
		c0,0.9,0.2,1.6,0.7,2.1c0.5,0.5,1.1,0.8,1.8,0.8C450.9,109.4,451.4,109.2,451.9,108.9z"/>
	<path fill="#CECECE" d="M458,102.4v1c0.3-0.4,0.7-0.7,1.2-0.9c0.5-0.2,1.1-0.3,1.7-0.3c1.8,0,2.6,0.9,2.6,2.7v5.8h-1.5v-5.3
		c0-0.6-0.2-1.1-0.5-1.4c-0.3-0.3-0.7-0.4-1.3-0.4c-0.4,0-0.7,0.1-1.1,0.2c-0.4,0.1-0.7,0.3-0.9,0.6s-0.4,0.6-0.4,1.1v5.2h-1.5v-8.2
		H458z"/>
	<path fill="#CECECE" d="M477.2,101.9c-0.9-0.9-1.9-1.3-3.3-1.3c-0.6,0-1.2,0.2-1.6,0.5c-0.4,0.3-0.6,0.7-0.6,1.2
		c0,0.3,0.2,0.6,0.5,0.8c0.3,0.2,0.7,0.4,1.3,0.6c0,0,0.3,0.1,0.9,0.3c0.7,0.2,1.2,0.4,1.7,0.6c0.4,0.2,0.9,0.4,1.2,0.6
		c0.4,0.2,0.6,0.6,0.8,1c0.2,0.4,0.3,0.8,0.3,1.4c0,1.1-0.4,1.9-1.2,2.5s-1.8,0.9-3.1,0.9c-1,0-1.8-0.2-2.6-0.5
		c-0.7-0.3-1.4-0.8-1.9-1.3l1-1.2c0.4,0.5,1,0.9,1.6,1.2c0.6,0.3,1.3,0.4,2,0.4c0.7,0,1.4-0.2,1.8-0.5c0.5-0.3,0.7-0.8,0.7-1.4
		c0-0.4-0.1-0.7-0.4-0.9c-0.2-0.2-0.6-0.4-0.9-0.6c-0.4-0.1-0.9-0.3-1.5-0.5c-0.8-0.2-1.5-0.4-2-0.6c-0.5-0.2-0.9-0.5-1.3-1
		c-0.4-0.4-0.5-1-0.5-1.7c0-0.6,0.2-1.1,0.5-1.6c0.3-0.5,0.8-0.9,1.4-1.2c0.6-0.3,1.3-0.4,2.1-0.4c1.7,0,3.1,0.5,4.1,1.6
		L477.2,101.9z"/>
	<path fill="#CECECE" d="M480.7,102.4l2.6,6.5l2.6-6.5h1.6l-4,9.8c-0.2,0.6-0.6,1.1-1,1.3c-0.4,0.3-0.9,0.4-1.6,0.4h-1.1v-1.3
		c0.2,0,0.6,0,1,0c0.3,0,0.5-0.1,0.7-0.2c0.2-0.1,0.4-0.3,0.5-0.6l0.5-1.1l-3.4-8.3H480.7z"/>
	<path fill="#CECECE" d="M493.9,104.4c-0.3-0.3-0.6-0.6-1-0.7c-0.4-0.2-0.9-0.3-1.4-0.3c-0.5,0-0.9,0.1-1.2,0.3
		c-0.3,0.2-0.5,0.5-0.5,0.9c0,0.3,0.2,0.6,0.5,0.8s0.8,0.3,1.5,0.5c0.6,0.2,1.2,0.3,1.6,0.5c0.4,0.2,0.7,0.4,1,0.7
		c0.3,0.3,0.4,0.8,0.4,1.3c0,0.7-0.3,1.4-0.9,1.8c-0.6,0.5-1.4,0.7-2.4,0.7c-0.7,0-1.3-0.1-1.9-0.3c-0.6-0.2-1.1-0.5-1.5-1l0.7-1
		c0.3,0.4,0.7,0.6,1.2,0.8c0.5,0.2,1,0.3,1.5,0.3c0.6,0,1-0.1,1.3-0.4c0.3-0.2,0.5-0.6,0.5-1c0-0.4-0.2-0.6-0.5-0.8
		c-0.3-0.2-0.9-0.3-1.6-0.5c-0.6-0.2-1.2-0.3-1.5-0.5c-0.4-0.1-0.7-0.4-1-0.7c-0.3-0.3-0.4-0.8-0.4-1.3c0-0.4,0.1-0.8,0.4-1.2
		s0.6-0.7,1.1-0.9c0.5-0.2,1-0.3,1.7-0.3c1.3,0,2.3,0.4,3.1,1.2L493.9,104.4z"/>
	<path fill="#CECECE" d="M497,100.2h1.5v2.2h1.7v1.3h-1.7v4.6c0,0.3,0.1,0.6,0.2,0.8c0.1,0.2,0.3,0.3,0.6,0.3h0.8v1.3H499
		c-1.3,0-1.9-0.7-1.9-2v-4.9h-1.4v-1.3h1.4V100.2z"/>
	<path fill="#CECECE" d="M508.9,109.6c-0.4,0.4-0.9,0.7-1.5,0.9c-0.6,0.2-1.2,0.3-1.8,0.3c-0.8,0-1.5-0.2-2.2-0.5
		c-0.6-0.4-1.1-0.9-1.5-1.5c-0.4-0.7-0.5-1.4-0.5-2.3c0-0.8,0.2-1.5,0.5-2.2s0.8-1.2,1.5-1.5c0.6-0.4,1.3-0.6,2.1-0.6
		c0.8,0,1.5,0.2,2.1,0.6c0.6,0.4,1.1,0.9,1.4,1.6c0.3,0.7,0.5,1.4,0.5,2.3v0.3h-6.5c0.1,0.8,0.3,1.4,0.8,1.9s1.2,0.7,2,0.7
		c0.5,0,0.9-0.1,1.3-0.3s0.8-0.4,1.1-0.7L508.9,109.6z M507.7,104.7c-0.2-0.4-0.5-0.7-0.9-0.9c-0.4-0.2-0.8-0.3-1.3-0.3
		c-0.5,0-0.9,0.1-1.3,0.4s-0.7,0.6-0.9,1c-0.2,0.4-0.3,0.8-0.4,1.2h5.1C508,105.5,507.9,105.1,507.7,104.7z"/>
	<path fill="#CECECE" d="M512.9,102.4v0.9c0.2-0.3,0.6-0.6,1.1-0.8c0.5-0.2,1-0.3,1.6-0.3c1.1,0,1.9,0.5,2.3,1.4
		c0.2-0.4,0.6-0.8,1.1-1c0.5-0.2,1-0.4,1.6-0.4c0.8,0,1.3,0.2,1.8,0.6c0.4,0.4,0.6,1,0.6,1.9v5.9h-1.5v-5.5c0-0.5-0.1-0.9-0.4-1.2
		c-0.2-0.3-0.6-0.4-1.1-0.4c-0.3,0-0.6,0.1-0.9,0.2s-0.6,0.3-0.8,0.6c-0.2,0.2-0.3,0.5-0.3,0.9v5.5h-1.5v-5.5c0-0.5-0.1-0.9-0.4-1.2
		c-0.2-0.3-0.6-0.4-1.1-0.4c-0.3,0-0.6,0.1-0.9,0.2c-0.3,0.1-0.6,0.3-0.8,0.6c-0.2,0.2-0.3,0.5-0.3,0.9v5.5h-1.5v-8.2H512.9z"/>
	<path fill="#CECECE" d="M530.1,101.8c0-0.8,0.2-1.4,0.7-1.9c0.4-0.5,1-0.7,1.8-0.7h0.9v1.1h-0.6c-0.4,0-0.7,0.1-0.9,0.4
		c-0.2,0.3-0.3,0.6-0.3,1.1v0.7h1.7v1.3h-1.7v6.9h-1.5v-6.9h-1.4v-1.3h1.4V101.8z"/>
	<path fill="#CECECE" d="M536.2,110.3c-0.6-0.4-1.1-0.9-1.4-1.6c-0.3-0.7-0.5-1.4-0.5-2.2s0.2-1.5,0.5-2.2c0.3-0.7,0.8-1.2,1.4-1.5
		c0.6-0.4,1.3-0.6,2.2-0.6c0.8,0,1.6,0.2,2.2,0.6c0.6,0.4,1.1,0.9,1.4,1.5c0.3,0.7,0.5,1.4,0.5,2.2s-0.2,1.5-0.5,2.2
		s-0.8,1.2-1.4,1.6c-0.6,0.4-1.3,0.6-2.2,0.6C537.5,110.9,536.8,110.7,536.2,110.3z M540.2,108.7c0.5-0.6,0.7-1.3,0.7-2.2
		c0-0.8-0.2-1.6-0.7-2.1c-0.5-0.6-1.1-0.9-1.9-0.9c-0.5,0-1,0.1-1.4,0.4c-0.4,0.3-0.7,0.6-0.9,1.1s-0.3,1-0.3,1.5
		c0,0.9,0.2,1.6,0.7,2.2c0.5,0.6,1.1,0.9,1.9,0.9C539.1,109.5,539.7,109.3,540.2,108.7z"/>
	<path fill="#CECECE" d="M545.8,99.3v9c0,0.3,0.1,0.6,0.2,0.8s0.3,0.3,0.6,0.3h0.8v1.3h-1.2c-1.3,0-1.9-0.7-1.9-2v-9.3H545.8z"/>
	<path fill="#CECECE" d="M556.1,99.3v11.3h-1.5v-1c-0.6,0.8-1.5,1.2-2.7,1.2c-0.7,0-1.3-0.2-1.9-0.5s-1-0.8-1.3-1.5
		c-0.3-0.7-0.5-1.4-0.5-2.3c0-0.9,0.2-1.6,0.5-2.3c0.3-0.7,0.7-1.2,1.3-1.5c0.6-0.4,1.2-0.5,1.9-0.5c0.6,0,1,0.1,1.5,0.3
		s0.8,0.5,1.2,1v-4.2H556.1z M554.3,104.5c-0.2-0.3-0.6-0.6-0.9-0.8c-0.4-0.2-0.7-0.2-1-0.2c-0.8,0-1.4,0.3-1.8,0.8
		c-0.5,0.6-0.7,1.3-0.7,2.2c0,0.9,0.2,1.6,0.7,2.2s1.1,0.8,1.8,0.8c0.6,0,1.2-0.2,1.6-0.5c0.5-0.4,0.7-1,0.7-2v-1.2
		C554.6,105.3,554.5,104.9,554.3,104.5z"/>
	<path fill="#CECECE" d="M565.6,109.6c-0.4,0.4-0.9,0.7-1.5,0.9c-0.6,0.2-1.2,0.3-1.8,0.3c-0.8,0-1.5-0.2-2.2-0.5
		c-0.6-0.4-1.1-0.9-1.5-1.5c-0.4-0.7-0.5-1.4-0.5-2.3c0-0.8,0.2-1.5,0.5-2.2s0.8-1.2,1.5-1.5c0.6-0.4,1.3-0.6,2.1-0.6
		c0.8,0,1.5,0.2,2.1,0.6c0.6,0.4,1.1,0.9,1.4,1.6c0.3,0.7,0.5,1.4,0.5,2.3v0.3h-6.5c0.1,0.8,0.3,1.4,0.8,1.9s1.2,0.7,2,0.7
		c0.5,0,0.9-0.1,1.3-0.3s0.8-0.4,1.1-0.7L565.6,109.6z M564.4,104.7c-0.2-0.4-0.5-0.7-0.9-0.9c-0.4-0.2-0.8-0.3-1.3-0.3
		c-0.5,0-0.9,0.1-1.3,0.4s-0.7,0.6-0.9,1c-0.2,0.4-0.3,0.8-0.4,1.2h5.1C564.7,105.5,564.6,105.1,564.4,104.7z"/>
	<path fill="#CECECE" d="M569.6,102.4v1c0.3-0.4,0.7-0.7,1.2-0.9s1-0.3,1.5-0.3v1.5c-0.1,0-0.2,0-0.5,0c-0.3,0-0.6,0.1-0.9,0.2
		s-0.6,0.3-0.9,0.5s-0.4,0.4-0.4,0.7v5.6h-1.5v-8.2H569.6z"/>
	<path fill="#CECECE" d="M578.2,99.5c0.2-0.2,0.4-0.3,0.7-0.3c0.3,0,0.5,0.1,0.7,0.3c0.2,0.2,0.2,0.4,0.2,0.7c0,0.3-0.1,0.6-0.2,0.7
		c-0.2,0.2-0.4,0.2-0.7,0.2c-0.3,0-0.6-0.1-0.7-0.2c-0.2-0.2-0.2-0.4-0.2-0.7C578,99.9,578.1,99.6,578.2,99.5z M579.7,102.4v8.2
		h-1.5v-8.2H579.7z"/>
	<path fill="#CECECE" d="M583.6,102.4v1c0.3-0.4,0.7-0.7,1.2-0.9c0.5-0.2,1.1-0.3,1.7-0.3c1.8,0,2.6,0.9,2.6,2.7v5.8h-1.5v-5.3
		c0-0.6-0.2-1.1-0.5-1.4c-0.3-0.3-0.7-0.4-1.3-0.4c-0.4,0-0.7,0.1-1.1,0.2c-0.4,0.1-0.7,0.3-0.9,0.6s-0.4,0.6-0.4,1.1v5.2h-1.5v-8.2
		H583.6z"/>
	<path fill="#CECECE" d="M596.5,102.4l2.6,6.5l2.6-6.5h1.6l-4,9.8c-0.2,0.6-0.6,1.1-1,1.3c-0.4,0.3-0.9,0.4-1.6,0.4h-1.1v-1.3
		c0.2,0,0.6,0,1,0c0.3,0,0.5-0.1,0.7-0.2c0.2-0.1,0.4-0.3,0.5-0.6l0.5-1.1l-3.4-8.3H596.5z"/>
	<path fill="#CECECE" d="M606,110.3c-0.6-0.4-1.1-0.9-1.4-1.6s-0.5-1.4-0.5-2.2s0.2-1.5,0.5-2.2c0.3-0.7,0.8-1.2,1.4-1.5
		c0.6-0.4,1.3-0.6,2.2-0.6c0.8,0,1.6,0.2,2.2,0.6c0.6,0.4,1.1,0.9,1.4,1.5c0.3,0.7,0.5,1.4,0.5,2.2s-0.2,1.5-0.5,2.2
		c-0.3,0.7-0.8,1.2-1.4,1.6c-0.6,0.4-1.3,0.6-2.2,0.6C607.3,110.9,606.6,110.7,606,110.3z M610,108.7c0.5-0.6,0.7-1.3,0.7-2.2
		c0-0.8-0.2-1.6-0.7-2.1c-0.5-0.6-1.1-0.9-1.9-0.9c-0.5,0-1,0.1-1.4,0.4c-0.4,0.3-0.7,0.6-0.9,1.1c-0.2,0.5-0.3,1-0.3,1.5
		c0,0.9,0.2,1.6,0.7,2.2c0.5,0.6,1.1,0.9,1.9,0.9C608.9,109.5,609.6,109.3,610,108.7z"/>
	<path fill="#CECECE" d="M615.3,102.4v5.3c0,0.6,0.1,1.1,0.4,1.4c0.3,0.3,0.7,0.4,1.3,0.4c0.6,0,1.1-0.1,1.6-0.4s0.7-0.7,0.7-1.3
		v-5.4h1.5v8.2h-1.5v-1c-0.3,0.4-0.7,0.7-1.2,0.9c-0.5,0.2-1.1,0.3-1.7,0.3c-1.7,0-2.6-0.9-2.6-2.6v-5.8H615.3z"/>
	<path fill="#CECECE" d="M624.8,102.4v1c0.3-0.4,0.7-0.7,1.2-0.9s1-0.3,1.5-0.3v1.5c-0.1,0-0.2,0-0.5,0c-0.3,0-0.6,0.1-0.9,0.2
		c-0.3,0.1-0.6,0.3-0.9,0.5c-0.2,0.2-0.4,0.4-0.4,0.7v5.6h-1.5v-8.2H624.8z"/>
	<path fill="#CECECE" d="M636.7,102.2c1,0,1.8,0.2,2.4,0.7s0.9,1.2,0.9,2.1v5.6h-1.5v-0.7c-0.3,0.3-0.7,0.6-1.1,0.7
		c-0.5,0.1-1,0.2-1.6,0.2c-0.8,0-1.5-0.2-2-0.7c-0.6-0.4-0.8-1.1-0.8-1.9c0-0.5,0.1-1,0.4-1.4c0.3-0.4,0.6-0.7,1.1-0.9
		c0.4-0.2,0.9-0.3,1.4-0.3c0.8,0,1.4,0,1.8,0c0.4,0,0.7-0.1,0.9-0.1V105c0-0.5-0.2-0.9-0.6-1.2c-0.4-0.3-0.9-0.4-1.5-0.4
		c-0.5,0-0.9,0.1-1.3,0.3c-0.4,0.2-0.8,0.5-1.2,0.8l-0.6-0.9C634.2,102.7,635.3,102.2,636.7,102.2z M637.8,109.5
		c0.4-0.2,0.6-0.5,0.7-1v-1.8c-0.3,0.1-0.7,0.1-1.3,0.1h-0.9c-0.6,0-1,0.1-1.4,0.4c-0.4,0.3-0.5,0.7-0.5,1.1c0,0.5,0.2,0.9,0.5,1.1
		c0.4,0.3,0.8,0.4,1.4,0.4C636.9,109.8,637.4,109.7,637.8,109.5z"/>
	<path fill="#CECECE" d="M643.9,109.4v4.3h-1.5v-11.3h1.5v1.2c0.3-0.4,0.7-0.8,1.2-1s1-0.4,1.5-0.4c0.7,0,1.3,0.2,1.9,0.5
		s1,0.8,1.3,1.5c0.3,0.6,0.5,1.4,0.5,2.3c0,0.9-0.2,1.6-0.5,2.3c-0.3,0.7-0.7,1.2-1.3,1.5c-0.6,0.4-1.2,0.5-1.9,0.5
		C645.4,110.9,644.5,110.4,643.9,109.4z M648,108.7c0.5-0.6,0.7-1.3,0.7-2.2c0-0.9-0.2-1.6-0.7-2.2c-0.5-0.6-1.1-0.8-1.8-0.8
		c-0.3,0-0.7,0.1-1,0.3s-0.7,0.5-0.9,0.8s-0.4,0.7-0.4,1.2v1.4c0,0.6,0.1,1,0.4,1.4c0.2,0.4,0.5,0.6,0.9,0.8s0.7,0.2,1.1,0.2
		C647,109.5,647.6,109.3,648,108.7z"/>
	<path fill="#CECECE" d="M653.6,109.4v4.3h-1.5v-11.3h1.5v1.2c0.3-0.4,0.7-0.8,1.2-1s1-0.4,1.5-0.4c0.7,0,1.3,0.2,1.9,0.5
		s1,0.8,1.3,1.5c0.3,0.6,0.5,1.4,0.5,2.3c0,0.9-0.2,1.6-0.5,2.3c-0.3,0.7-0.7,1.2-1.3,1.5c-0.6,0.4-1.2,0.5-1.9,0.5
		C655.1,110.9,654.2,110.4,653.6,109.4z M657.8,108.7c0.5-0.6,0.7-1.3,0.7-2.2c0-0.9-0.2-1.6-0.7-2.2c-0.5-0.6-1.1-0.8-1.8-0.8
		c-0.3,0-0.7,0.1-1,0.3s-0.7,0.5-0.9,0.8s-0.4,0.7-0.4,1.2v1.4c0,0.6,0.1,1,0.4,1.4c0.2,0.4,0.5,0.6,0.9,0.8s0.7,0.2,1.1,0.2
		C656.7,109.5,657.3,109.3,657.8,108.7z"/>
	<path fill="#CECECE" d="M661.9,109.1c0.2-0.2,0.4-0.3,0.7-0.3c0.3,0,0.5,0.1,0.7,0.3s0.2,0.4,0.2,0.7c0,0.3-0.1,0.6-0.2,0.7
		s-0.4,0.2-0.7,0.2c-0.3,0-0.5-0.1-0.7-0.2s-0.3-0.4-0.3-0.7C661.6,109.5,661.7,109.3,661.9,109.1z"/>
</g>
<g>
	<line fill="none" stroke="#FFFFFF" stroke-miterlimit="10" x1="360" y1="86.7" x2="313.2" y2="86.7"/>
	<circle fill="#FFFFFF" cx="313.2" cy="86.7" r="5.6"/>
</g>
</svg>
